<svg xmlns="http://www.w3.org/2000/svg" viewBox="0 0 100 100" preserveAspectRatio="xMidYMid" width="230" height="230" style="shape-rendering: auto; display: block; background: transparent;" xmlns:xlink="http://www.w3.org/1999/xlink"><g><g transform="rotate(0 50 50)">
  <rect x="47" y="27" rx="0" ry="0" width="6" height="6" fill="#a3fcf8">
    <animate attributeName="opacity" values="1;0" keyTimes="0;1" dur="1.25s" begin="-1.1458333333333333s" repeatCount="indefinite"></animate>
  </rect>
</g><g transform="rotate(30 50 50)">
  <rect x="47" y="27" rx="0" ry="0" width="6" height="6" fill="#a3fcf8">
    <animate attributeName="opacity" values="1;0" keyTimes="0;1" dur="1.25s" begin="-1.0416666666666665s" repeatCount="indefinite"></animate>
  </rect>
</g><g transform="rotate(60 50 50)">
  <rect x="47" y="27" rx="0" ry="0" width="6" height="6" fill="#a3fcf8">
    <animate attributeName="opacity" values="1;0" keyTimes="0;1" dur="1.25s" begin="-0.9374999999999999s" repeatCount="indefinite"></animate>
  </rect>
</g><g transform="rotate(90 50 50)">
  <rect x="47" y="27" rx="0" ry="0" width="6" height="6" fill="#a3fcf8">
    <animate attributeName="opacity" values="1;0" keyTimes="0;1" dur="1.25s" begin="-0.8333333333333333s" repeatCount="indefinite"></animate>
  </rect>
</g><g transform="rotate(120 50 50)">
  <rect x="47" y="27" rx="0" ry="0" width="6" height="6" fill="#a3fcf8">
    <animate attributeName="opacity" values="1;0" keyTimes="0;1" dur="1.25s" begin="-0.7291666666666665s" repeatCount="indefinite"></animate>
  </rect>
</g><g transform="rotate(150 50 50)">
  <rect x="47" y="27" rx="0" ry="0" width="6" height="6" fill="#a3fcf8">
    <animate attributeName="opacity" values="1;0" keyTimes="0;1" dur="1.25s" begin="-0.6249999999999999s" repeatCount="indefinite"></animate>
  </rect>
</g><g transform="rotate(180 50 50)">
  <rect x="47" y="27" rx="0" ry="0" width="6" height="6" fill="#a3fcf8">
    <animate attributeName="opacity" values="1;0" keyTimes="0;1" dur="1.25s" begin="-0.5208333333333333s" repeatCount="indefinite"></animate>
  </rect>
</g><g transform="rotate(210 50 50)">
  <rect x="47" y="27" rx="0" ry="0" width="6" height="6" fill="#a3fcf8">
    <animate attributeName="opacity" values="1;0" keyTimes="0;1" dur="1.25s" begin="-0.41666666666666663s" repeatCount="indefinite"></animate>
  </rect>
</g><g transform="rotate(240 50 50)">
  <rect x="47" y="27" rx="0" ry="0" width="6" height="6" fill="#a3fcf8">
    <animate attributeName="opacity" values="1;0" keyTimes="0;1" dur="1.25s" begin="-0.31249999999999994s" repeatCount="indefinite"></animate>
  </rect>
</g><g transform="rotate(270 50 50)">
  <rect x="47" y="27" rx="0" ry="0" width="6" height="6" fill="#a3fcf8">
    <animate attributeName="opacity" values="1;0" keyTimes="0;1" dur="1.25s" begin="-0.20833333333333331s" repeatCount="indefinite"></animate>
  </rect>
</g><g transform="rotate(300 50 50)">
  <rect x="47" y="27" rx="0" ry="0" width="6" height="6" fill="#a3fcf8">
    <animate attributeName="opacity" values="1;0" keyTimes="0;1" dur="1.25s" begin="-0.10416666666666666s" repeatCount="indefinite"></animate>
  </rect>
</g><g transform="rotate(330 50 50)">
  <rect x="47" y="27" rx="0" ry="0" width="6" height="6" fill="#a3fcf8">
    <animate attributeName="opacity" values="1;0" keyTimes="0;1" dur="1.25s" begin="0s" repeatCount="indefinite"></animate>
  </rect>
</g><g></g></g><!-- [ldio] generated by https://loading.io --></svg>